<?xml version="1.0" encoding="utf-8"?>
<!-- Generator: Adobe Illustrator 27.5.0, SVG Export Plug-In . SVG Version: 6.00 Build 0)  -->
<svg version="1.1" id="Layer_1" xmlns="http://www.w3.org/2000/svg" xmlns:xlink="http://www.w3.org/1999/xlink" x="0px" y="0px"
	 viewBox="0 0 5000 5000" style="enable-background:new 0 0 5000 5000;" xml:space="preserve">
<rect style="fill:#81B9D6;" width="4996.317" height="5005"/>
<g>
	<path style="fill:#FFFFFF;" d="M533.954,2556.504c0,0,0.174-12.636,0.513-37.124c0.12-6.121,0.049-12.986,0.389-20.572
		c0.297-7.582,0.622-15.894,0.975-24.932c0.422-9.028,0.579-18.776,1.293-29.203c0.666-10.438,1.38-21.565,2.146-33.395
		c3.468-47.245,8.938-105.505,19.569-173.407c10.6-67.893,26.375-145.431,49.898-230.712c1.47-5.329,2.877-10.712,4.433-16.096
		c1.599-5.377,3.212-10.773,4.831-16.22c3.272-10.867,6.586-21.874,9.929-33.028c7.297-22.125,14.333-44.933,22.726-67.888
		c7.896-23.12,17.006-46.404,26.102-70.293c9.657-23.666,19.271-47.943,30.226-72.252c42.648-97.676,96.924-199.871,164.58-302.806
		c67.641-102.898,148.969-206.412,245.327-305.438c96.345-98.921,207.511-193.644,333.611-277.744
		c63.043-42.016,129.684-81.479,199.691-117.701c69.968-36.283,143.58-68.707,219.995-97.477
		c76.411-28.851,155.992-53.173,237.95-72.935c20.438-5.199,41.176-9.422,61.927-13.966c10.35-2.371,20.848-4.156,31.304-6.208
		c10.472-1.955,20.948-4.063,31.475-5.909c10.556-1.746,21.134-3.481,31.728-5.226l15.896-2.617l15.998-2.227
		c10.673-1.475,21.351-2.965,32.067-4.456c10.713-1.377,21.492-2.483,32.266-3.739c21.529-2.67,43.233-4.342,64.981-6.28
		c10.87-1.081,21.799-1.555,32.737-2.291c10.937-0.638,21.873-1.448,32.865-1.963c11.01-0.406,22.03-0.818,33.078-1.221
		l16.573-0.604l16.507-0.191c11.001-0.135,22.021-0.253,33.069-0.386c11.318-0.005,22.259,0.264,33.437,0.372
		c22.254,0.058,44.557,1.211,66.931,2.041c11.192,0.295,22.372,1.302,33.574,1.947c11.198,0.778,22.438,1.282,33.648,2.319
		c22.428,2.094,44.964,3.759,67.429,6.605c11.246,1.338,22.532,2.504,33.782,3.995c11.243,1.579,22.504,3.169,33.772,4.753
		c11.303,1.485,22.543,3.388,33.804,5.293c11.246,1.9,22.543,3.67,33.813,5.708c22.453,4.445,45.086,8.351,67.507,13.538
		c45.057,9.432,89.822,21.215,134.534,33.831c22.267,6.657,44.651,13.129,66.771,20.585c22.28,7.005,44.264,15.042,66.382,22.814
		c11.041,3.959,21.955,8.309,32.951,12.439l16.471,6.278c5.488,2.124,10.91,4.433,16.362,6.642
		c10.902,4.471,21.806,8.946,32.727,13.42c10.812,4.754,21.623,9.493,32.458,14.242c172.856,76.946,337.854,179.377,486.859,304.709
		c149.034,125.234,282.035,273.28,391.783,438.781c109.836,165.404,196.314,348.248,254.226,540.611
		c58.07,192.318,87.378,393.991,87.2,595.579c-0.227,201.587-29.95,403.137-88.385,595.214
		c-58.268,192.131-145.041,374.626-255.084,539.611c-109.958,165.071-243.064,312.638-392.085,437.332
		c-149,124.809-313.868,226.697-486.471,303.106c-10.819,4.714-21.624,9.435-32.416,14.132
		c-10.902,4.438-21.783,8.875-32.666,13.324c-5.446,2.199-10.856,4.486-16.333,6.609l-16.451,6.219
		c-10.982,4.107-21.87,8.42-32.895,12.336c-22.082,7.723-44.024,15.68-66.261,22.61c-22.082,7.403-44.416,13.823-66.632,20.423
		c-44.628,12.475-89.29,24.143-134.243,33.457c-22.376,5.127-44.944,8.973-67.341,13.361c-11.241,1.998-22.513,3.748-33.734,5.627
		c-11.237,1.873-22.445,3.758-33.711,5.188c-11.233,1.568-22.465,3.123-33.686,4.687c-11.229,1.461-22.473,2.602-33.686,3.911
		c-22.415,2.803-44.885,4.41-67.243,6.447c-11.178,1.01-22.377,1.482-33.558,2.254c-11.18,0.613-22.309,1.602-33.476,1.873
		c-22.314,0.777-44.605,1.879-66.728,1.896c-11.102,0.07-22.088,0.314-33.228,0.304c-11.054-0.147-22.093-0.304-33.107-0.462
		l-16.531-0.223l-16.486-0.635c-10.978-0.419-21.946-0.859-32.896-1.277c-10.937-0.537-21.846-1.368-32.746-2.025
		c-10.893-0.761-21.777-1.25-32.604-2.347c-21.68-1.972-43.308-3.693-64.765-6.409c-10.738-1.271-21.471-2.385-32.154-3.78
		c-10.662-1.51-21.307-3.003-31.939-4.508l-15.936-2.249l-15.841-2.645c-10.542-1.76-21.082-3.52-31.592-5.264
		c-10.493-1.862-20.922-3.98-31.353-5.963c-10.426-2.053-20.871-3.856-31.182-6.241c-20.662-4.563-41.317-8.815-61.658-14.04
		c-81.631-19.857-160.84-44.25-236.883-73.135c-76.075-28.824-149.313-61.255-218.916-97.531
		c-69.647-36.206-135.924-75.644-198.601-117.607c-125.392-83.985-235.827-178.498-331.509-277.143
		c-95.696-98.749-176.416-201.897-243.494-304.41c-67.092-102.534-120.859-204.27-163.084-301.492
		c-10.838-24.208-20.346-48.367-29.908-71.907c-8.988-23.772-17.996-46.943-25.805-69.962
		c-8.305-22.822-15.242-45.521-22.459-67.529c-3.311-11.096-6.566-22.04-9.801-32.859c-1.602-5.41-3.195-10.798-4.773-16.126
		c-1.54-5.355-2.922-10.711-4.373-16.018c-23.219-84.833-38.739-161.927-49.133-229.418c-10.42-67.528-15.74-125.433-19.094-172.394
		c-0.732-11.753-1.42-22.822-2.072-33.186c-0.679-10.374-0.82-20.059-1.217-29.031c-0.331-8.978-0.643-17.244-0.926-24.777
		c-0.313-7.539-0.229-14.355-0.35-20.434c-0.283-24.338-0.43-36.896-0.43-36.896H533.954z M547.104,2556.504
		c0,0,0.172,12.558,0.511,36.896c0.13,6.078,0.054,12.889,0.396,20.434c0.285,7.533,0.614,15.8,0.97,24.772
		c0.407,8.967,0.572,18.651,1.281,29.03c0.654,10.353,1.369,21.428,2.127,33.17c3.457,46.966,8.889,104.838,19.444,172.313
		c10.531,67.452,26.201,144.492,49.591,229.222c1.448,5.302,2.85,10.657,4.387,15.996c1.594,5.339,3.204,10.7,4.815,16.104
		c3.248,10.808,6.531,21.736,9.861,32.827c7.248,21.964,14.24,44.63,22.572,67.441c7.854,22.976,16.897,46.118,25.935,69.843
		c9.606,23.508,19.156,47.639,30.025,71.781c42.392,97.061,96.315,198.596,163.545,300.874
		c67.203,102.247,148.022,205.102,243.773,303.481c95.736,98.297,206.18,192.43,331.479,275.976
		c62.641,41.768,128.85,80.982,198.415,116.954c69.52,36.06,142.662,68.252,218.593,96.854
		c75.913,28.672,154.976,52.82,236.414,72.472c20.294,5.159,40.906,9.364,61.516,13.86c10.296,2.369,20.713,4.145,31.106,6.176
		c10.406,1.934,20.808,4.047,31.273,5.877c10.496,1.722,20.993,3.455,31.516,5.188l15.806,2.602l15.893,2.211
		c10.604,1.461,21.218,2.932,31.863,4.426c10.644,1.369,21.346,2.455,32.06,3.705c21.386,2.672,42.962,4.317,64.571,6.246
		c10.806,1.08,21.669,1.547,32.526,2.275c10.867,0.641,21.747,1.444,32.645,1.949c10.909,0.408,21.846,0.805,32.798,1.211
		l16.425,0.598l16.474,0.195c11.001,0.131,21.997,0.267,33.022,0.381c10.947,0.016,22.072-0.25,33.138-0.363
		c22.167-0.061,44.286-1.207,66.502-2.031c11.101-0.283,22.226-1.299,33.354-1.929c11.131-0.782,22.292-1.271,33.435-2.304
		c22.278-2.09,44.669-3.73,66.999-6.561c11.17-1.342,22.383-2.493,33.567-3.976c11.173-1.569,22.36-3.146,33.565-4.736
		c11.213-1.478,22.38-3.346,33.573-5.241c11.187-1.896,22.411-3.655,33.596-5.676c22.308-4.427,44.804-8.299,67.075-13.453
		c44.762-9.359,89.234-21.091,133.669-33.605c22.126-6.621,44.362-13.046,66.346-20.471c22.128-6.947,43.971-14.931,65.948-22.665
		c10.965-3.921,21.806-8.245,32.734-12.346l16.378-6.246c5.448-2.112,10.829-4.41,16.252-6.599
		c10.822-4.438,21.659-8.892,32.513-13.346c10.743-4.703,21.488-9.424,32.249-14.138c171.746-76.447,335.681-178.237,483.742-302.77
		c148.089-124.434,280.235-271.544,389.284-435.985c109.137-164.344,195.05-346.02,252.587-537.135
		c57.695-191.078,86.812-391.438,86.636-591.765c-0.235-200.32-29.763-400.571-87.811-591.408
		c-57.898-190.893-144.111-372.209-253.45-536.139c-109.268-164.014-241.521-310.637-389.6-434.539
		c-148.043-124.005-311.858-225.241-483.354-301.156c-10.741-4.698-21.473-9.369-32.198-14.043
		c-10.837-4.421-21.648-8.838-32.46-13.241c-5.415-2.179-10.785-4.451-16.231-6.552l-16.344-6.192
		c-10.907-4.077-21.726-8.368-32.677-12.266c-21.942-7.658-43.737-15.584-65.83-22.466c-21.944-7.349-44.132-13.713-66.2-20.275
		c-44.348-12.403-88.726-23.991-133.372-33.237c-22.227-5.091-44.665-8.916-66.92-13.275c-11.166-1.996-22.352-3.732-33.508-5.599
		c-11.16-1.854-22.298-3.726-33.494-5.165c-11.162-1.545-22.327-3.099-33.466-4.645c-11.155-1.454-22.34-2.578-33.482-3.879
		c-22.266-2.791-44.59-4.392-66.808-6.412c-11.105-1.013-22.243-1.475-33.337-2.239c-11.104-0.602-22.174-1.584-33.268-1.854
		c-22.157-0.766-44.249-1.878-66.308-1.878c-10.972-0.091-22.14-0.337-32.909-0.309c-11.036,0.149-22.055,0.309-33.072,0.457
		l-16.492,0.214l-16.329,0.637c-10.898,0.424-21.767,0.848-32.618,1.278c-10.86,0.528-21.705,1.351-32.535,2.015
		c-10.816,0.74-21.641,1.227-32.396,2.326c-21.538,1.969-43.033,3.656-64.343,6.347c-10.676,1.271-21.335,2.39-31.956,3.776
		c-10.597,1.497-21.175,2.983-31.728,4.477l-15.836,2.233l-15.737,2.623c-10.475,1.756-20.946,3.492-31.394,5.236
		c-10.426,1.848-20.783,3.959-31.152,5.919c-10.352,2.05-20.734,3.83-30.975,6.198c-20.528,4.544-41.054,8.763-61.262,13.956
		c-81.096,19.736-159.797,43.957-235.359,72.664c-75.567,28.639-148.343,60.858-217.498,96.908
		c-69.188,35.975-135.042,75.157-197.316,116.846c-124.574,83.445-234.322,177.368-329.388,275.381
		c-95.088,98.109-175.283,200.61-241.935,302.454c-66.668,101.88-120.094,202.974-162.033,299.573
		c-10.775,24.028-20.213,48.053-29.718,71.438c-8.933,23.598-17.886,46.626-25.642,69.488c-8.25,22.689-15.141,45.24-22.305,67.101
		c-3.291,11.015-6.537,21.905-9.741,32.643c-1.594,5.386-3.177,10.721-4.747,16.024c-1.518,5.334-2.898,10.646-4.334,15.918
		c-23.078,84.272-38.49,160.879-48.82,227.931c-10.35,67.087-15.629,124.626-18.973,171.29c-0.732,11.685-1.414,22.678-2.06,32.98
		c-0.66,10.307-0.807,19.928-1.209,28.854c-0.322,8.907-0.633,17.121-0.901,24.601c-0.329,7.492-0.233,14.276-0.364,20.316
		c-0.281,24.183-0.424,36.667-0.424,36.667H547.104z"/>
	<path style="fill:#CCECFC;" d="M3933.23,1489.461c0,199.769,161.938,361.709,361.717,361.709
		c199.762,0,361.708-161.94,361.708-361.709c0-199.768-161.946-361.73-361.708-361.73
		C4095.169,1127.73,3933.23,1289.693,3933.23,1489.461z"/>
	<circle style="fill:#CCECFC;" cx="3418.88" cy="551.447" r="398.031"/>
	<path style="fill:#CCECFC;" d="M1331.955,620.229c0,227.651,184.535,412.195,412.177,412.195
		c227.645,0,412.196-184.544,412.196-412.195c0-227.644-184.552-412.185-412.196-412.185
		C1516.49,208.044,1331.955,392.585,1331.955,620.229z"/>
	<path style="fill:#CCECFC;" d="M1092.282,1579.445c0,206.064-167.035,373.099-373.095,373.099
		c-206.068,0-373.103-167.034-373.103-373.099c0-206.063,167.035-373.104,373.103-373.104
		C925.247,1206.341,1092.282,1373.383,1092.282,1579.445z"/>
	<circle style="fill:#069BA6;" cx="4466.947" cy="2744.421" r="278.529"/>
	<path style="fill:#CCECFC;" d="M1731.322,4530.788c0,177.164,143.606,320.796,320.79,320.796
		c177.162,0,320.782-143.632,320.782-320.796c0-177.168-143.62-320.785-320.782-320.785
		C1874.929,4210.003,1731.322,4353.62,1731.322,4530.788z"/>
	<path style="fill:#CCECFC;" d="M3977.034,3839.515c0,199.768,161.938,361.705,361.716,361.705
		c199.763,0,361.709-161.938,361.709-361.705c0-199.773-161.946-361.732-361.709-361.732
		C4138.972,3477.782,3977.034,3639.741,3977.034,3839.515z"/>
	<path style="fill:#069BA6;" d="M482.236,4104.481c130.221,177.102,379.363,215.105,556.465,84.882
		c177.103-130.224,215.102-379.368,84.88-556.466c-130.224-177.102-379.36-215.105-556.463-84.882
		S352.012,3927.384,482.236,4104.481z"/>
	<path style="fill:#CCECFC;" d="M250.842,2773.69c0,199.768,161.938,361.711,361.716,361.711
		c199.763,0,361.708-161.943,361.708-361.711s-161.945-361.729-361.708-361.729C412.779,2411.962,250.842,2573.923,250.842,2773.69z
		"/>
	<g>
		<g>
			<g>
				<g>
					<polygon style="fill:#FFFFFF;" points="2084.628,4657.046 2021.053,4657.046 2021.053,4593.431 1957.44,4593.431 
						1957.424,4593.431 1957.424,4513.948 2021.023,4513.948 2021.023,4450.378 2084.619,4450.378 2084.619,4513.948 
						2148.216,4513.948 2148.216,4593.431 2084.628,4593.431 					"/>
				</g>
			</g>
		</g>
		<g>
			<polygon style="fill:none;" points="2021.023,4450.378 2084.619,4450.378 2084.619,4513.948 2148.216,4513.948 
				2148.216,4593.431 2084.628,4593.431 2084.628,4657.046 2021.053,4657.046 2021.053,4593.431 1957.44,4593.431 
				1957.424,4593.431 1957.424,4513.948 2021.023,4513.948 			"/>
		</g>
		<g>
			<polygon style="fill:none;" points="2021.023,4450.378 2084.619,4450.378 2084.619,4513.948 2148.216,4513.948 
				2148.216,4593.431 2084.628,4593.431 2084.628,4657.046 2021.053,4657.046 2021.053,4593.431 1957.44,4593.431 
				1957.424,4593.431 1957.424,4513.948 2021.023,4513.948 			"/>
			<path style="fill:#DB4744;" d="M1815.033,4442.009v219.252c0,32.646,26.68,59.35,59.328,59.35h356.941
				c32.717,0,59.391-26.703,59.391-59.35v-219.252c0-32.646-26.674-55.23-59.391-55.23h-67.153v-0.133h-31.825v0.133h-158.976
				h-31.798h-67.189C1841.713,4386.778,1815.033,4409.362,1815.033,4442.009z M1957.424,4513.948h63.6v-63.57h63.596v63.57h63.597
				v79.482h-63.588v63.615h-63.575v-63.615h-63.612h-0.017V4513.948z"/>
			<path style="fill:#DB4744;" d="M2132.324,4363.685c0-14.575-12.998-27.575-27.56-27.575h-103.879
				c-14.507,0-27.537,13-27.537,27.575v23.094h-31.798v-23.094c0-32.689,26.689-59.368,59.335-59.368h103.879
				c32.616,0,59.385,26.679,59.385,59.368v22.961h-31.825V4363.685z"/>
		</g>
	</g>
	<g>
		<path style="fill:#FFFFFF;" d="M1609.392,502.644l-18.659,142.48l-96.682,28.832c0,0-5.093,69.544-20.354,78.024
			c-15.269,8.481-45.796-1.694-45.796-1.694v-67.848l66.15-62.758l28.838-106.858L1609.392,502.644z"/>
		<rect x="1731.194" y="495.816" style="fill:#FFFFFF;" width="207.79" height="173.444"/>
		<g>
			<g>
				<g>
					<g>
						<g>
							<g>
								<path style="fill:#DB4744;" d="M1496.519,779.434c0,36.702,29.754,66.448,66.442,66.448
									c36.701,0,66.445-29.746,66.445-66.448c0-36.694-29.744-66.446-66.445-66.446
									C1526.272,712.987,1496.519,742.739,1496.519,779.434z M1576.369,794.021c-3.533,3.248-8.237,5.242-13.41,5.242
									c-5.177,0-9.875-1.994-13.405-5.242c-3.946-3.623-6.434-8.815-6.434-14.593c0-1.231,0.134-2.431,0.348-3.599
									c1.694-9.229,9.766-16.241,19.491-16.241c9.719,0,17.801,7.012,19.496,16.241c0.209,1.168,0.336,2.368,0.336,3.599
									C1582.791,785.206,1580.31,790.398,1576.369,794.021z"/>
							</g>
						</g>
						<path style="fill:#DB4744;" d="M1901,779.434c0,36.702,29.756,66.448,66.447,66.448c36.692,0,66.443-29.746,66.443-66.448
							c0-36.694-29.751-66.446-66.443-66.446C1930.756,712.987,1901,742.739,1901,779.434z M1947.609,779.429
							c0-1.231,0.13-2.431,0.342-3.599c1.695-9.229,9.766-16.241,19.488-16.241c9.725,0,17.801,7.012,19.496,16.241
							c0.212,1.168,0.342,2.368,0.342,3.599c0,5.777-2.484,10.97-6.425,14.593c-3.53,3.248-8.237,5.242-13.413,5.242
							c-5.171,0-9.871-1.994-13.399-5.242C1950.097,790.398,1947.609,785.206,1947.609,779.429z"/>
						<g>
							<g>
								<g>
									<path style="fill:#DB4744;" d="M1700.069,477.602v216.987h246.595V477.602H1700.069z M1758.183,563.719h48.052v-48.057
										h48.053v48.057h48.054v48.052h-48.054v48.053h-48.053v-48.053h-48.052V563.719z"/>
								</g>
							</g>
						</g>
					</g>
				</g>
				<g>
					<path style="fill:#3C454F;" d="M1411.422,734.458c0,10.569,0.279,21.423,0.279,31.998c25.319,0,50.633,0,75.965-0.28
						c8.342-36.726,43.959-66.223,82.351-60.659c33.771,1.896,57.557,30.009,67.839,59.901v2.708h256.141
						c4.125-26.911,22.714-49.116,47.557-58.412c8.104-3.028,16.867-4.697,26.012-4.697c33.066,0,61.145,21.68,70.814,51.57
						c1.206,3.728,2.143,7.578,2.751,11.539h13.593v-11.539V617.106V452.76h-313.084c0-0.3,0-0.653,0-1.037h-73.446
						c0,0.38,0.003,0.737,0.003,1.037h-30.34v17.083c-38.933-0.274-77.884-0.543-117.086,0.011
						c3.064,38.396-15.308,73.173-24.202,109.625c-5.572,13.914-4.733,33.949-21.147,40.34
						c-16.422,8.068-33.115,15.585-49.523,23.092c-1.124,30.336-0.285,60.382-0.559,90.711
						C1420.604,733.898,1416.152,734.17,1411.422,734.458z M1733.07,587.741c0-53.673,43.518-97.19,97.19-97.19
						c53.676,0,97.195,43.518,97.195,97.19c0,53.679-43.52,97.19-97.195,97.19C1776.588,684.932,1733.07,641.42,1733.07,587.741z
						 M1502.406,614.255c7.789-29.491,17.253-58.427,25.039-87.64c19.754-0.84,39.793-0.556,59.545-0.556
						c1.119,29.488,0.557,58.985,0.279,88.474C1558.891,614.533,1530.794,614.813,1502.406,614.255z M1428.832,705.309
						c17.191-0.299,34.384-0.299,51.569,0c0.298,10.373,0.298,20.448,0,30.829c-17.186,0.292-34.675,0.292-51.87-0.301
						C1428.24,725.757,1428.24,715.682,1428.832,705.309z"/>
					<path style="fill:#DB4744;" d="M1668.157,412.194c0-20.301,16.463-36.761,36.76-36.761c20.308,0,36.769,16.46,36.769,36.761
						c0,6.842-0.041,31.643-0.047,39.528h-73.446C1668.157,443.71,1668.157,419.042,1668.157,412.194z"/>
				</g>
			</g>
			<path style="fill:#3C454F;" d="M1662.498,450.197c0,3.686,2.986,6.674,6.67,6.674h73.829c3.685,0,6.672-2.988,6.672-6.674l0,0
				c0-3.687-2.987-6.675-6.672-6.675h-73.829C1665.484,443.522,1662.498,446.511,1662.498,450.197L1662.498,450.197z"/>
		</g>
	</g>
	<g>
		<path style="fill:#DB4744;" d="M3137.976,513.405c0,11.982,1.447,23.606,4.097,34.769c0.1,0.386,0.199,0.766,0.281,1.159
			c0.15,0.654,0.335,1.324,0.483,1.989c5.036,20.588,14.051,40.536,25.51,59.464c14.939,24.668,34.043,47.597,53.938,67.948h154.307
			c4.959,0,9.401,3.052,11.196,7.668l25.025,65.227l88.504-219.502c1.783-4.391,5.967-7.323,10.714-7.496
			c4.191-0.292,9.104,2.465,11.185,6.725l40.687,83.693h76.575c0.634,0,1.242,0.077,1.84,0.185
			c6.302-9.993,11.927-20.282,16.679-30.811c4.874-10.801,8.825-21.854,11.578-33.101c0.149-0.665,0.333-1.335,0.483-1.989
			c0.083-0.393,0.182-0.773,0.282-1.159c2.646-11.162,4.096-22.786,4.096-34.769c0-0.658-0.016-1.315-0.023-1.973
			c-0.785-60.294-37.367-111.94-89.479-134.667c-2.088-0.731-4.184-1.409-6.296-2.018c-16.718-6.568-34.842-10.246-53.812-10.34
			c-47.02,0.186-88.913,22.199-116.094,56.41c-1.896,1.415-2.862,2.239-2.862,2.239c-0.06-0.05-0.115-0.08-0.163-0.122
			c-0.007-0.007-0.017-0.015-0.023-0.019c-27.224-35.552-70.104-58.518-118.38-58.518c-0.238,0-0.476,0.009-0.716,0.009
			c-0.197,0-0.393-0.009-0.591-0.009c-21.162,0-41.285,4.42-59.516,12.367c-26.441,9.292-50.732,28.746-70.288,62.271
			c-3.613,6.345-6.76,12.854-9.358,19.265c-7.173,17.781-10.158,35.572-9.835,53.132
			C3137.992,512.09,3137.976,512.747,3137.976,513.405z M3631.55,513.258c-0.323-0.689-0.521-1.415-0.559-2.17
			c-2.515-52.686-48.441-98.61-101.13-101.094c-4.213-0.241-7.709-5.362-7.793-11.459c-0.084-6.091,4.112-10.852,9.374-10.564
			c63.381,3.066,118.482,58.174,121.563,121.57c0.067,1.324-0.185,2.579-0.701,3.717c-1.515,3.363-5.306,5.683-9.872,5.632
			C3637.431,518.815,3633.057,516.457,3631.55,513.258z"/>
		<path style="fill:#DB4744;" d="M3401.396,788.643c1.765,4.606,6.166,7.647,11.078,7.688c0.04,0,0.073,0,0.111,0
			c4.884,0,9.273-2.96,11.116-7.525l89.793-222.695l32.156,66.159c2,4.118,6.193,6.724,10.781,6.724h69.304
			c-51.561,67.554-127.249,117.539-143.568,128.974c-15.827,11.095-35.934,23.747-51.441,33.252
			c-14.931,9.67-23.834,14.567-23.834,14.567s-0.075-0.043-0.187-0.111c-0.114,0.068-0.188,0.111-0.188,0.111
			s-8.9-4.898-23.833-14.567c-15.51-9.505-35.613-22.157-51.442-33.252c-10.601-7.425-46.241-31.118-84.053-65.315l121.187,0.018
			L3401.396,788.643z"/>
	</g>
	<g>
		<polygon style="fill:#FFFFFF;" points="959.438,3928.122 665.701,3759.031 641.379,3772.937 619.754,3818.712 633.664,3843.034 
			918.507,4002.056 		"/>
		<g>
			<g>
				
					<rect x="818.519" y="3914.491" transform="matrix(0.4974 -0.8675 0.8675 0.4974 -2977.6365 2699.2666)" style="fill:#3C454F;" width="44.506" height="9.957"/>
				<polygon style="fill:#3C454F;" points="879.141,3967.109 901.273,3928.509 892.64,3923.55 870.504,3962.161 				"/>
				
					<rect x="843.98" y="3932.437" transform="matrix(0.4973 -0.8676 0.8676 0.4973 -2983.4309 2725.7344)" style="fill:#3C454F;" width="32.947" height="9.955"/>
				
					<rect x="889.099" y="3958.306" transform="matrix(0.4973 -0.8676 0.8676 0.4973 -2983.2117 2777.9387)" style="fill:#3C454F;" width="32.943" height="9.953"/>
				<g>
					<path style="fill:#DB4744;" d="M641.961,3793.168c0,0,12.457-28.981,35.595-15.713l167.613,96.087l-31.972,55.765
						l-171.364-98.238C641.833,3831.068,625.438,3821.655,641.961,3793.168z"/>
				</g>
			</g>
		</g>
		<g>
			<path style="fill:none;" d="M676.316,3770.927l275.301,157.837l-4.818,8.413l-0.174,0.293l-28.357,49.465l-0.168,0.298
				l-4.845,8.452l-277.179-158.918c0,0-16.859-15.529,0.883-46.467C636.959,3790.3,652.549,3757.299,676.316,3770.927z"/>
			<path style="fill:#3C454F;" d="M616.574,3802.798c0.038-0.108,0.073-0.223,0.108-0.337c0.003,0.006,0.006,0.006,0.011,0.006
				C616.65,3802.581,616.612,3802.689,616.574,3802.798z"/>
			<path style="fill:#3C454F;" d="M634.986,3769.884c2.76-3.02,5.09-5.084,6.475-6.225c-2.324,2.053-4.418,4.264-6.254,6.426
				C635.133,3770.014,635.06,3769.954,634.986,3769.884z"/>
		</g>
		<g>
			<polygon style="fill:none;" points="595.617,3775.521 595.834,3775.13 595.84,3775.142 			"/>
			<polygon style="fill:none;" points="601.113,3765.93 601.334,3765.544 601.113,3765.93 			"/>
			<path style="fill:#00A4A1;" d="M601.113,3765.93l0.221-0.386c2.33-4.063,9.406-4.389,15.805-0.717l10.357,5.931
				c1.479-2.129,4.354-2.835,6.646-1.521c0.32,0.185,0.586,0.412,0.844,0.646c-5.83,6.398-13.557,17.108-18.304,32.577
				c-0.442-0.103-0.882-0.261-1.304-0.494c-2.289-1.319-3.139-4.149-2.042-6.501l-10.353-5.937c-6.403-3.672-9.7-9.945-7.367-14.008
				l0.223-0.38l-0.006-0.012L601.113,3765.93L601.113,3765.93z"/>
			<polygon style="fill:#FFFFFF;" points="474.393,3693.278 601.113,3765.93 595.834,3775.13 484.68,3711.409 			"/>
		</g>
		<g>
			<path style="fill:none;" d="M676.316,3770.927l275.301,157.837l-4.818,8.413l-0.174,0.293l-28.357,49.465l-0.168,0.298
				l-4.845,8.452l-277.179-158.918c0,0-16.859-15.529,0.883-46.467C636.959,3790.3,652.549,3757.299,676.316,3770.927z"/>
			<path style="fill:#3C454F;" d="M627.06,3843.257L627.06,3843.257l279.966,160.51l-5.595,9.766l17.421,9.982l4.712-8.223
				l9.315-16.246l33.468-58.784l0.354-0.206l11.965-20.867l-17.427-9.983l-5.475,9.554l-279.963-160.51
				c-13.605-7.799-25.584-2.33-34.34,5.41c-2.324,2.053-4.418,4.264-6.254,6.426c-0.074-0.071-0.146-0.131-0.221-0.201
				c-5.83,6.398-13.557,17.108-18.304,32.577c0.003,0.006,0.006,0.006,0.011,0.006c-0.043,0.114-0.081,0.223-0.119,0.331
				C612.219,3815.562,610.098,3833.529,627.06,3843.257z M636.959,3790.3c0,0,15.59-33.001,39.357-19.373l275.301,157.837
				l-4.818,8.413l-0.174,0.293l-28.357,49.465l-0.168,0.298l-4.845,8.452l-277.179-158.918
				C636.076,3836.767,619.217,3821.237,636.959,3790.3z"/>
		</g>
		<g>
			<polygon style="fill:#525F6C;" points="932.879,3999.046 966.347,3940.262 966.7,3940.056 964.288,3944.265 1084.863,4013.385 
				1053.453,4068.172 			"/>
			<polygon style="fill:#3C454F;" points="1084.863,4013.385 1103.327,3981.188 1125.955,3994.163 1057.761,4113.101 
				1035.131,4100.13 1053.453,4068.172 			"/>
		</g>
	</g>
	<g>
		<rect x="651.797" y="1374.687" style="fill:#2F363B;" width="170.742" height="52.992"/>
		<path style="fill:#434B54;" d="M557.749,1525.553c0-68.431,48.25-123.921,107.772-123.921h143.293
			c59.527,0,107.772,55.49,107.772,123.921v277.672c0,3.814-0.212,7.555-0.532,11.268c0.068,0.624,0.168,1.245,0.168,1.893
			c0,2.142-0.391,4.159-1.08,6.004c-0.061,0.451-0.096,0.923-0.155,1.38h-0.491c-2.268,4.649-6.531,7.824-11.501,7.824H571.342
			c-4.957,0-9.223-3.175-11.488-7.824h-0.502c-0.068-0.466-0.096-0.938-0.166-1.405c-0.676-1.83-1.061-3.857-1.061-5.979
			c0-0.634,0.101-1.238,0.174-1.856c-0.337-3.722-0.549-7.478-0.549-11.304V1525.553z"/>
		<path style="fill:#E9F6F5;" d="M585.316,1661.794c0,38.975,27.473,70.566,61.375,70.566h180.951
			c33.91,0,61.377-31.592,61.377-70.566v-47.818c0-38.962-27.467-70.562-61.377-70.562H646.691c-33.902,0-61.375,31.6-61.375,70.562
			V1661.794z"/>
		<rect x="629.144" y="1573.669" style="fill:#FDC76C;" width="216.057" height="28.54"/>
		<rect x="629.144" y="1625.938" style="fill:#FDC76C;" width="216.057" height="28.539"/>
		<rect x="652.56" y="1678.207" style="fill:#FDC76C;" width="169.219" height="28.539"/>
		<g>
			<rect x="693.926" y="1304.339" style="fill:#F39226;" width="8.552" height="70.357"/>
			<rect x="713.49" y="1304.339" style="fill:#F39226;" width="8.555" height="70.357"/>
			<rect x="830.917" y="1304.339" style="fill:#F39226;" width="8.558" height="70.357"/>
			<rect x="811.346" y="1304.339" style="fill:#F39226;" width="8.554" height="70.357"/>
			<rect x="733.064" y="1304.339" style="fill:#F39226;" width="8.555" height="70.357"/>
			<rect x="752.629" y="1304.339" style="fill:#F39226;" width="8.557" height="70.357"/>
			<rect x="674.353" y="1304.339" style="fill:#F39226;" width="8.552" height="70.357"/>
			<rect x="791.775" y="1304.339" style="fill:#F39226;" width="8.552" height="70.357"/>
			<rect x="654.775" y="1304.339" style="fill:#F39226;" width="8.561" height="70.357"/>
			<rect x="635.212" y="1304.339" style="fill:#F39226;" width="8.555" height="70.357"/>
			<rect x="772.203" y="1304.339" style="fill:#F39226;" width="8.555" height="70.357"/>
			<rect x="616.678" y="1304.339" style="fill:#F39226;" width="7.527" height="70.357"/>
			<rect x="850.484" y="1304.339" style="fill:#F39226;" width="7.178" height="70.357"/>
			<line style="fill:#C93392;" x1="850.484" y1="1304.339" x2="839.475" y2="1304.339"/>
			<rect x="839.475" y="1304.339" style="fill:#E1AF65;" width="11.01" height="70.357"/>
			<line style="fill:#C93392;" x1="830.917" y1="1304.339" x2="819.899" y2="1304.339"/>
			<rect x="819.899" y="1304.339" style="fill:#E1AF65;" width="11.018" height="70.357"/>
			<line style="fill:#C93392;" x1="811.346" y1="1304.339" x2="800.327" y2="1304.339"/>
			<rect x="800.327" y="1304.339" style="fill:#E1AF65;" width="11.019" height="70.357"/>
			<line style="fill:#C93392;" x1="791.775" y1="1304.339" x2="780.758" y2="1304.339"/>
			<rect x="780.758" y="1304.339" style="fill:#E1AF65;" width="11.018" height="70.357"/>
			<line style="fill:#C93392;" x1="772.203" y1="1304.339" x2="761.185" y2="1304.339"/>
			<rect x="761.185" y="1304.339" style="fill:#E1AF65;" width="11.018" height="70.357"/>
			<line style="fill:#C93392;" x1="752.629" y1="1304.339" x2="741.619" y2="1304.339"/>
			<rect x="741.619" y="1304.339" style="fill:#E1AF65;" width="11.01" height="70.357"/>
			<line style="fill:#C93392;" x1="733.064" y1="1304.339" x2="722.045" y2="1304.339"/>
			<rect x="722.045" y="1304.339" style="fill:#E1AF65;" width="11.02" height="70.357"/>
			<line style="fill:#C93392;" x1="713.49" y1="1304.339" x2="702.477" y2="1304.339"/>
			<rect x="702.477" y="1304.339" style="fill:#E1AF65;" width="11.013" height="70.357"/>
			<line style="fill:#C93392;" x1="693.926" y1="1304.339" x2="682.905" y2="1304.339"/>
			<rect x="682.905" y="1304.339" style="fill:#E1AF65;" width="11.021" height="70.357"/>
			<line style="fill:#C93392;" x1="674.353" y1="1304.339" x2="663.336" y2="1304.339"/>
			<rect x="663.336" y="1304.339" style="fill:#E1AF65;" width="11.018" height="70.357"/>
			<line style="fill:#C93392;" x1="654.775" y1="1304.339" x2="643.767" y2="1304.339"/>
			<rect x="643.767" y="1304.339" style="fill:#E1AF65;" width="11.009" height="70.357"/>
			<line style="fill:#C93392;" x1="635.212" y1="1304.339" x2="624.205" y2="1304.339"/>
			<rect x="624.205" y="1304.339" style="fill:#E1AF65;" width="11.007" height="70.357"/>
		</g>
	</g>
	<g>
		<g>
			<path style="fill:#FFFFFF;" d="M628.113,1740.525c19.914,13.262,26.459,39.058,16.166,59.956l-77.723-51.759
				C581.875,1731.171,608.196,1727.268,628.113,1740.525z"/>
			<path style="fill:#FFFFFF;" d="M575.893,1818.943c-19.911-13.263-26.459-39.054-16.166-59.959l77.721,51.759
				C622.131,1828.297,595.81,1832.204,575.893,1818.943z"/>
		</g>
	</g>
	<g>
		<g>
			<path style="fill:#E9E6E3;" d="M4311.274,2815.263c0.595-73.977,52.695-122.278,122.218-137.529v-116.65h-10.16
				c-8.25,0-14.952-6.697-14.952-14.947c0-8.272,6.702-14.947,14.952-14.947h43.62v284.074H4311.274z"/>
			<path style="fill:#FFF9F6;" d="M4466.952,2531.188h43.636c8.245,0,14.945,6.675,14.945,14.947c0,8.25-6.7,14.947-14.945,14.947
				h-10.184v116.65c69.541,15.251,121.623,63.553,122.218,137.529h-155.67V2531.188z"/>
			<path style="fill:#E05B5A;" d="M4622.622,2815.263c0,0.434,0.101,0.83,0.101,1.254c0,86.034-68.224,141.142-154.264,141.142
				c-0.496,0-1.013-0.06-1.507-0.06v-142.336H4622.622z"/>
			<path style="fill:#DB4744;" d="M4311.171,2816.517c0-0.424,0.104-0.82,0.104-1.254h155.678v142.336
				C4381.605,2956.963,4311.171,2902.029,4311.171,2816.517z"/>
		</g>
	</g>
	<g>
		<g>
			<path style="fill:#3C454F;" d="M665.25,2640.751h-50.213c-4.166,0-7.539-3.357-7.539-7.533c0-4.155,3.373-7.518,7.539-7.518
				h50.213c4.158,0,7.545,3.362,7.545,7.518C672.795,2637.394,669.408,2640.751,665.25,2640.751z"/>
			<path style="fill:#3C454F;" d="M665.25,2595.577h-50.213c-4.166,0-7.539-3.378-7.539-7.544c0-4.16,3.373-7.522,7.539-7.522
				h50.213c4.158,0,7.545,3.362,7.545,7.522C672.795,2592.199,669.408,2595.577,665.25,2595.577z"/>
		</g>
		<g>
			<path style="fill:#DB4744;" d="M560.891,2654.851c-24.829,0-56.549,6.333-69.853,9.256v112.593c0,0,27.582,55.672,120.371,55.672
				c92.797,0,105.08-59.794,105.08-59.794v-108.531c-15.725-3.21-55.859-9.63-84.307,1.505
				C632.182,2665.551,593.143,2654.851,560.891,2654.851z M607.498,2768.823c0-4.171,3.373-7.533,7.539-7.533h50.213
				c4.158,0,7.545,3.362,7.545,7.533c0,4.161-3.387,7.534-7.545,7.534h-50.213C610.871,2776.357,607.498,2772.984,607.498,2768.823z
				 M607.498,2727.388c0-4.155,3.373-7.518,7.539-7.518h50.213c4.158,0,7.545,3.362,7.545,7.518c0,4.171-3.387,7.544-7.545,7.544
				h-50.213C610.871,2734.932,607.498,2731.559,607.498,2727.388z M607.498,2685.968c0-4.183,3.373-7.55,7.539-7.55h50.213
				c4.158,0,7.545,3.367,7.545,7.55c0,4.144-3.387,7.527-7.545,7.527h-50.213C610.871,2693.495,607.498,2690.111,607.498,2685.968z"
				/>
			<path style="fill:#3C454F;" d="M471.414,2506.703v6.002v85.398v56.905v113.782c0,46.981,38.428,85.426,85.426,85.426h15.086
				c0.299,8.229,10.053,15.083,23.344,17.462v3.514v45.108h-0.451c-7.843,0-14.258,6.409-14.258,14.22v49.393
				c0,7.827,6.415,14.23,14.258,14.23h0.451v89.944h20.109v-89.944h0.467c7.803,0,14.242-6.403,14.242-14.23v-49.393
				c0-7.811-6.44-14.22-14.242-14.22h-0.467v-45.108v-3.514c13.318-2.385,23.049-9.233,23.345-17.462h15.121
				c46.995,0,85.415-38.444,85.415-85.426v-113.782v-56.905v-85.398v-6.002c0-11.094-8.984-20.082-20.075-20.082H491.488
				C480.4,2486.621,471.414,2495.609,471.414,2506.703z M491.037,2540.302h85.429h54.572h85.45v85.432v4.562v26.364v7.387v108.531
				c0,0-12.283,59.794-105.08,59.794c-92.789,0-120.371-55.672-120.371-55.672v-112.593v-7.447v-11.243v-19.683V2540.302z"/>
		</g>
	</g>
	<g>
		<polygon style="fill:#F7F8F9;" points="4309.595,1327.554 4429.744,1654.031 4398.257,1712.862 4336.11,1696.291 
			4210.161,1361.527 		"/>
		<g>
			<polygon style="fill:#404E51;" points="4218.007,1361.404 4340.109,1689.017 4385.274,1707.333 4400.325,1701.725 
				4422.483,1658.316 4300.387,1330.701 4316.83,1323.599 4440.778,1656.17 4409.597,1717.238 4432.77,1779.417 4422.451,1783.263 
				4421.912,1783.462 4411.594,1787.309 4388.421,1725.13 4324.874,1699.366 4200.927,1366.795 			"/>
			<g>
				<polygon style="fill:#DB4744;" points="4355.261,1495.496 4413.29,1651.203 4395.185,1691.129 4382.231,1695.954 
					4342.408,1677.623 4284.378,1521.915 				"/>
			</g>
			<g>
				<path style="fill:#DB4744;" d="M4196.73,1333.604l-21.531-57.778c-10.448-28.035,3.811-59.243,31.852-69.691l40.454,108.547
					L4196.73,1333.604z"/>
				<path style="fill:#C54240;" d="M4207.051,1206.135c28.039-10.451,59.246,3.809,69.695,31.846l21.533,57.779l-50.774,18.922
					L4207.051,1206.135z"/>
				<path style="fill:#30393A;" d="M4298.279,1295.76l18.081-6.74c10.104-3.766,21.666,2.229,25.826,13.39
					c4.164,11.163-0.659,23.262-10.764,27.028l-68.855,25.661l-5.533-14.85l-9.529-25.567L4298.279,1295.76z"/>
				<path style="fill:#404E51;" d="M4178.648,1340.344l18.082-6.739l50.774-18.923l9.529,25.567l5.533,14.85l-68.855,25.66
					c-10.102,3.767-21.664-2.224-25.826-13.389C4163.727,1356.208,4168.547,1344.107,4178.648,1340.344z"/>
			</g>
		</g>
	</g>
	<g>
		<g>
			<path style="fill:#DB4744;" d="M4441.043,3661.017c0.769,0.695,1.52,1.439,2.277,2.167l49.986-38.629
				c0,0-12.444-120.979-144.223-126.335c-131.766,7.132-144.477,126.129-144.477,126.129l51.175,39.514
				c1.934-2.053,3.098-3.102,3.098-3.102l-0.027,0.146c23.443-24.109,58.12-39.709,103.709-33.175c0,0,43.195,1.249,78.209,33.028
				l0,0C4440.771,3660.761,4440.88,3660.864,4441.043,3661.017z M4393.964,3577.769h-31.341v31.367h-27.295v-31.367h-31.377v-27.287
				h31.377v-31.334h27.295v31.334h31.341V3577.769z"/>
			<g>
				<g>
					<path style="fill:#30393A;" d="M4351.707,3985.37l2.97,5.833l0.035,0.076l2.937-5.909l41.016-80.532l1.272-2.308l1.259-2.662
						l-0.731-3.117l-3.907-16.615c5.376-2.531,10.519-5.469,15.37-8.81c15.464,24.344,66.167,22.046,66.167,22.046
						c-14.551-28.77-1.619-31.844,3.85-106.228l0,0c1.646-9.885,1.958-20.15,0.708-30.595
						c-5.404-39.405-21.052-65.704-39.331-83.302c-0.758-0.733-1.509-1.478-2.277-2.173c-0.163-0.152-0.272-0.261-0.272-0.261v0.005
						c-35.014-31.779-78.209-33.027-78.209-33.027c-45.589-6.535-80.266,9.064-103.709,33.169l0.027-0.146
						c0,0-1.164,1.054-3.098,3.102c-10.327,10.955-42.679,50.583-38.074,113.229c5.463,74.384,18.396,77.458,3.847,106.228
						c0,0,47.348,2.141,64.482-19.688c4.444,1.314,8.25,1.999,10.986,2.341c4.181,2.396,8.535,4.524,13.038,6.36l-3.078,13.09
						l-0.261,1.103l3.649,7.637L4351.707,3985.37z M4395.538,3875.443c-0.484,0.168-1.395,0.673-1.395,0.673
						c-13.233,6.133-27.923,9.663-43.452,9.663c-29.747,0-56.527-12.655-75.459-32.784c-17.381-25.674-18.79-60.729-15.893-79.543
						c71.602-27.146,103.222-77.425,103.222-77.425c28.299,77.425,94.792,62.972,75,128.354
						c-4.849,18.19-13.091,30.118-21.311,37.961C4409.938,3867.508,4402.956,3871.858,4395.538,3875.443z M4354.677,3979.536
						l-42.431-83.307l0.079-0.326l2.729-11.617c11.161,3.932,23.143,6.099,35.637,6.099c14.489,0,28.305-2.884,40.939-8.076
						l3.968,16.881L4354.677,3979.536z"/>
					<path style="fill:#404E51;" d="M4385.093,3779.405c0-5.117,4.148-9.267,9.269-9.267c5.119,0,9.269,4.149,9.269,9.267
						c0,5.121-4.149,9.271-9.269,9.271C4389.241,3788.677,4385.093,3784.526,4385.093,3779.405z"/>
					<path style="fill:#404E51;" d="M4309.548,3787.558c-4.81,0-8.709-3.9-8.709-8.712c0-4.808,3.899-8.707,8.709-8.707
						c4.808,0,8.704,3.899,8.704,8.707C4318.252,3783.657,4314.355,3787.558,4309.548,3787.558z"/>
					<path style="fill:#30393A;" d="M4404.385,3899.728c43.899,10.987,81.113,34.674,105.299,65.921
						c18.908,24.425,29.87,53.45,29.87,84.578h-117.378h-59.636v-62.847h49.12L4404.385,3899.728z"/>
				</g>
			</g>
		</g>
		<g>
			<path style="fill:#30393A;" d="M4100.699,4001.833l7.339-3.336c19.055-8.657,38.104-4.051,50.723,1.348l3.981,1.699l2.527,1.076
				l0.46-9.56l1.813-37.678c0.854-17.771-12.904-32.925-30.677-33.783c-11.31-0.543-21.875,4.73-28.251,14.11
				c-3.332,4.899-5.245,10.63-5.528,16.566L4100.699,4001.833z M4111.274,3986.761l1.636-34.012c0.202-4.128,1.529-8.109,3.84-11.51
				c4.436-6.518,11.784-10.189,19.642-9.809c12.349,0.592,21.916,11.129,21.324,23.475l-1.609,33.393
				C4144.698,3984.446,4128.348,3981.459,4111.274,3986.761z"/>
			<path style="fill:#E32228;" d="M4172.569,3998.405c0.188,0.098,0.396,0.201,0.577,0.288l0.467,0.244l-1.293,0.179
				L4172.569,3998.405z"/>
		</g>
		<g>
			<path style="fill:#30393A;" d="M4170.99,4003.701c0.186,0.098,0.396,0.195,0.574,0.288l0.47,0.244l6.692-0.918
				c20.739-2.841,37.666,7.028,48.215,15.816l5.438,4.523l15.711-44.607c5.907-16.783-2.94-35.239-19.718-41.154
				c-4.652-1.641-9.484-2.178-14.187-1.673c-6.091,0.651-11.959,3.063-16.926,7.099c-4.594,3.737-8.068,8.68-10.04,14.285
				l-1.206,3.427l-11.277,32.029l-2.985,8.483L4170.99,4003.701z M4185.19,3992.99l11.309-32.11c1.378-3.9,3.789-7.333,6.974-9.929
				c6.118-4.976,14.207-6.394,21.628-3.775c11.664,4.106,17.813,16.936,13.709,28.597l-11.106,31.535
				C4217.875,4000.35,4203.065,3992.811,4185.19,3992.99z"/>
			<path style="fill:#DB4744;" d="M4099.478,4048.694c-0.815,16.99,12.341,31.48,29.331,32.301
				c7.616,0.364,14.868-2.031,20.627-6.609c1.273-1.016,2.476-2.135,3.592-3.357c0.47-0.51,0.924-1.037,1.36-1.586
				c0.498-0.624,0.981-1.266,1.44-1.938c2.452-3.606,4.094-7.696,4.845-11.981c0.22-1.277,0.373-2.553,0.434-3.856l0.776-16.056
				l0.761-15.702l0.635-13.171l0.113-2.314l-0.367-0.189l-1.295,0.174l0.251-0.706c-0.885-0.446-1.89-0.929-2.985-1.423
				c-8.599-3.895-23.303-8.647-39.168-5.427c0.281,0.473-5.409,1.435-5.409,1.435c-4.05,1.292-8.13,3.106-12.168,5.697l-0.64,0.402
				L4099.478,4048.694z M4108.134,4006.89l14.628-4.4c-6.974,4.096-7.945,8.945-7.945,8.945
				c-14.691,45.217,0.909,60.262,0.909,60.262C4093.857,4058.688,4108.134,4006.89,4108.134,4006.89z"/>
			<path style="fill:#DB4744;" d="M4160.173,4072.908c0.646-0.598,3.608-3.954,3.797-4.204c0.298-0.391,0.587-0.787,0.866-1.2
				c0.302-0.44,0.59-0.891,0.866-1.347c1.979-3.265,3.332-6.877,3.989-10.635c0.223-1.271,0.365-2.559,0.427-3.856l0.774-16.056
				l1.395-28.873c9.842-3.471,21.176-1.271,21.176-1.271v0.017c17.132,2.542,30.09,13.073,35.926,18.706l0.676,0.651l-10.807,30.683
				l-4.91,13.932c-1.885,5.365-5.206,10.091-9.596,13.665c-8.413,6.849-19.534,8.782-29.751,5.187
				c-7.307-2.574-13.014-7.652-16.558-13.92C4159.035,4073.913,4159.615,4073.424,4160.173,4072.908z"/>
		</g>
		<path style="fill:#30393A;" d="M4239.846,4023.716c0.501-1.064,0.963-2.151,1.424-3.237c0.027-0.049,0.048-0.098,0.072-0.146
			c0.391-0.685,0.734-1.374,1.05-2.075c0.047-0.087,0.081-0.185,0.129-0.271l0.448,0.375l15.709-44.608
			c5.91-16.783-2.938-35.239-19.715-41.153c-4.654-1.641-9.487-2.179-14.188-1.674c22.604-16.044,49.805-27.792,79.757-33.696
			l-7.48,90.151h50.173v62.847h-117.379l8.378-23.779C4238.824,4025.573,4239.395,4024.672,4239.846,4023.716z"/>
	</g>
	<g>
		<g>
			<path style="fill:#069BA6;" d="M3201.82,4495.999c0,180.399,146.263,326.662,326.661,326.662
				c180.445,0,326.708-146.263,326.708-326.662c0-180.442-146.263-326.684-326.708-326.684
				C3348.083,4169.315,3201.82,4315.557,3201.82,4495.999z"/>
		</g>
	</g>
	<g>
		<g>
			<g>
				<g>
					<path style="fill:#FFFFFF;" d="M3621.949,4340.069c0-44.576-36.241-80.863-80.773-80.863c-44.553,0-80.77,36.287-80.77,80.863
						c0,44.526,36.217,80.775,80.77,80.775C3585.708,4420.845,3621.949,4384.612,3621.949,4340.069z"/>
				</g>
				<g>
					<path style="fill:#FFFFFF;" d="M3665.781,4429.823c50.157,19.238,49.732,54.444,49.909,56.177l0.247,124.907
						c0.008,0.348,0.098,11.59-6.72,18.58c-3.717,3.813-9.009,5.758-15.736,5.758l-4.751-0.027L3665.781,4429.823z
						 M3372.267,4681.982v-185.364c6.413-76.029,93.299-75.789,97.087-75.773h135.148l-41.567,156.252h-23.798
						c-18.943,0-34.374,15.414-34.374,34.363c0,18.962,15.431,34.393,34.374,34.393h23.222h73.226l0.032,58.187l-198.31,0.142
						l0.08-189.84l-12.64,16.322v145.519l-0.056,5.523c0,14.735-11.763,26.489-26.221,26.489c-14.426,0-26.188-11.754-26.188-26.212
						H3372.267z M3549.624,4634.815l-10.487-0.027c-12.843,0-23.304-10.444-23.304-23.328c0-12.834,10.453-23.295,23.304-23.295
						h19.819C3554.058,4600.511,3546.86,4621.916,3549.624,4634.815z"/>
				</g>
			</g>
		</g>
		<path style="fill:#DB4744;" d="M3677.655,4634.794l-20.661-204.971c-7.72-2.662-11.358-6.534-41.107-8.701
			c0,0-58.588,207.534-54.924,213.15c0.183,0.25,0.345,0.516,1.388,0.516h115.305V4634.794z"/>
	</g>
</g>
<g>
	<g>
		<g>
			<path style="fill:#52A5D1;" d="M2378.201,3148.494l0.056-16.006c0.942-17.093,1.906-35.456,2.849-54.792l-150.637,289.06
				c-19.64,37.684-55.687,64.097-97.541,71.473l-366.041,6.941l-79.842,14.371l-124.655,33.178
				c210.68,214.794,489.354,362.641,801.185,408.715l3.025-363.104L2378.201,3148.494z"/>
			<path style="fill:#52A5D1;" d="M3986.29,2502.499c0-781.054-633.171-1414.223-1414.223-1414.223
				c-781.055,0-1414.224,633.169-1414.224,1414.223c0,176.661,32.396,345.752,91.564,501.667
				c-4.016-71.646,48.431-134.917,120.656-143.347c8.361-0.978,16.624-1.136,24.74-0.619c37.404,2.396,71.381,20.08,94.905,47.449
				c10.904,42.69,23.654,84.638,38.179,125.753l26.738,229.017l70.098-12.346l394.363-69.489l203.852-391.172
				c-2.998-12.356-4.627-25.245-4.627-38.524c0-89.863,72.848-162.704,162.71-162.704c0.882,0,1.751,0.055,2.626,0.065
				c-0.016-0.271-0.033-0.549-0.057-0.82h137.049v-0.054c39.101-1.934,76.034-12.088,109.105-28.76
				c0.201,0.282,0.424,0.554,0.631,0.848l-16.083,9.499l-65.155,267.226l89.401,22.346l-59.594,111.74l250.03,494.58l46.466,68.3
				l59.007,117.234l0.244-6.188l25.968-74.145l303.215-599.781l-59.594-111.74l89.401-22.346l-65.155-267.226l-16.083-9.499
				c0.201-0.294,0.418-0.565,0.636-0.848c33.066,16.672,69.995,26.826,109.101,28.76v0.054h154.796c0,0,79.674-1.368,104.675,23.773
				l-102.752,381.03l-0.223-0.136c0,0.31,0,0.625,0,0.929l-0.119,0.457l0.125,0.331c0.418,128.681,3.736,272.543,12.346,421.798
				l-3.107-13.714l2.656,175.948C3793.967,3318.46,3986.29,2932.945,3986.29,2502.499z"/>
			<path style="fill:#F9F9FA;" d="M3491.029,3415.611c-8.609-149.255-11.928-293.117-12.346-421.798l-0.125-0.331l0.119-0.457
				c0-0.304,0-0.619,0-0.929l0.223,0.136l102.752-381.03c-25.001-25.142-104.675-23.773-104.675-23.773h-154.796v-0.054
				c-39.105-1.934-76.034-12.088-109.101-28.76c-0.218,0.282-0.435,0.554-0.636,0.848l16.083,9.499l65.155,267.226l-89.401,22.346
				l59.594,111.74l-303.215,599.781l-25.968,74.145l-0.244,6.188l17.779,35.323l-23.252,185.572
				c210.205-54.658,401.388-156.46,561.602-293.438l-2.656-175.948L3491.029,3415.611z"/>
			<path style="fill:#F9F9FA;" d="M1250.101,3012.497l49.691,425.606c4.369,37.39,23.956,71.325,54.151,93.812
				c23.771,17.701,58.189-11.222,87.409-11.222c7.9,0,15.841-0.684,23.73-2.074l97.307-25.9
				c-135.582-138.229-243.01-304.17-312.981-488.553C1249.563,3006.933,1249.774,3009.708,1250.101,3012.497z"/>
			<path style="fill:#F9F9FA;" d="M2925.737,3872.139l8.712-221.751l-59.007-117.234l-46.466-68.3l-250.03-494.58l59.594-111.74
				l-89.401-22.346l65.155-267.226l16.083-9.499c-0.207-0.294-0.43-0.565-0.631-0.848c-33.071,16.672-70.005,26.826-109.105,28.76
				v0.054h-137.049c0.023,0.271,0.041,0.549,0.057,0.82c-0.875-0.011-1.744-0.065-2.626-0.065
				c-89.862,0-162.71,72.841-162.71,162.704c0,13.279,1.629,26.168,4.627,38.524l-203.852,391.172l-394.363,69.489l-70.098,12.346
				l-26.738-229.017c-14.524-41.115-27.274-83.063-38.179-125.753c-23.524-27.369-57.501-45.054-94.905-47.449
				c-8.116-0.517-16.379-0.358-24.74,0.619c-72.226,8.43-124.672,71.7-120.656,143.347
				c69.972,184.383,177.399,350.323,312.981,488.553l124.655-33.178l79.842-14.371l366.041-6.941
				c41.854-7.376,77.901-33.789,97.541-71.473l150.637-289.06c-0.942,19.336-1.906,37.699-2.849,54.792l-0.056,16.006
				l-11.602,389.835l-3.025,363.104c68.044,10.057,137.655,15.289,208.493,15.289
				C2694.19,3916.723,2812.698,3901.243,2925.737,3872.139z"/>
			<path style="fill:#F9F9FA;" d="M2928.977,3871.283l23.252-185.572l-17.779-35.323l-8.712,221.751
				C2926.818,3871.859,2927.894,3871.563,2928.977,3871.283z"/>
		</g>
		<path style="fill:none;" d="M2918.367,3707.469v-0.005c-0.044,0-0.082,0-0.12,0
			C2918.285,3707.464,2918.323,3707.464,2918.367,3707.469z"/>
	</g>
	<g>
		<path style="fill:#010101;" d="M3258.982,2573.011c-63.57-87.383-172.589-131.691-324.022-131.691
			c-171.558,0-292.385,45.61-359.142,135.562c-0.033,0.049-0.071,0.104-0.109,0.157c13.014-3.59,38.873-12.009,70.614-28.971
			c65.058-50.695,161.764-76.34,288.637-76.34c110.632,0,196.433,24.637,256.064,73.355c21.041,10.485,52.326,23.284,69.527,30.146
			C3260.03,2574.491,3259.515,2573.741,3258.982,2573.011z"/>
		<g>
			<g>
				<path style="fill:none;" d="M1624.725,3250.073c-37.806-69.071-70.274-141.473-96.836-216.671l26.738,229.017L1624.725,3250.073
					z"/>
				<path style="fill:#F26428;" d="M2918.247,3707.464c0.038,0,0.076,0,0.12,0.005v-0.005
					C2918.323,3707.464,2918.285,3707.464,2918.247,3707.464z"/>
				<path style="fill:#F9F9FA;" d="M1521.743,2980.783c-3.281-28.097-14.888-53.185-32.033-73.134
					c10.904,42.69,23.654,84.638,38.179,125.753L1521.743,2980.783z"/>
			</g>
			<path style="fill:none;" d="M2918.247,3707.464c0.038,0,0.076,0,0.12,0.005v-0.005
				C2918.323,3707.464,2918.285,3707.464,2918.247,3707.464z"/>
			<polygon style="fill:#E6E6E5;" points="2934.693,3644.199 2934.693,3640.369 2922.25,3640.369 2922.25,3646.057 
				2928.643,3661.477 			"/>
			<g>
				<path style="fill:#E6E6E5;" d="M2928.643,3661.477l-6.393-15.42v9.396c0.805,0,1.603,0.016,2.406,0.016
					c3.352,0,6.691-0.043,10.037-0.064v-11.205L2928.643,3661.477z"/>
			</g>
		</g>
		<g>
			<path style="fill:none;" d="M3478.678,2993.025l0.223-0.793l-0.223-0.136C3478.678,2992.406,3478.678,2992.722,3478.678,2993.025
				z"/>
			<path style="fill:none;" d="M2918.367,3707.469v-0.005c-0.044,0-0.082,0-0.12,0
				C2918.285,3707.464,2918.323,3707.464,2918.367,3707.469z"/>
			<path style="fill:#0B4969;" d="M3478.684,2993.813c-0.006-0.261-0.006-0.527-0.006-0.788l-0.119,0.457L3478.684,2993.813z"/>
			<path style="fill:#4CC4D1;" d="M2918.367,3707.469v-0.005c-0.044,0-0.082,0-0.12,0
				C2918.285,3707.464,2918.323,3707.464,2918.367,3707.469z"/>
		</g>
		<g>
			<path style="fill:#D7AF95;" d="M3096.176,2401.837l0.141,0.11v-54.916h-335.618v79.344h-1.124
				c-14.105,31.293-33.958,59.42-58.154,83.127C2963.42,2534.592,3096.176,2401.837,3096.176,2401.837z"/>
			<path style="fill:#F3C8A6;" d="M3096.316,2453.108v-51.161l-0.141-0.11c0,0-132.756,132.755-394.756,107.665
				c-20.086,19.686-43.164,36.328-68.534,49.113c32.822,46.818,76.687,85.306,127.813,111.686v73.803h0.423v5.024h318.999v-5.024
				h16.196v-80.868c45.928-26.207,85.398-62.418,115.488-105.652C3163.948,2534.592,3123.826,2498.154,3096.316,2453.108z"/>
		</g>
		<path style="fill:#D1D4DC;" d="M3159.039,2614.635c-62.962,58.714-147.333,94.734-240.222,94.734
			c-85.263,0-163.252-30.394-224.198-80.775l233.883,1033.148L3159.039,2614.635z"/>
		<polygon style="fill:#435C7A;" points="2988.443,3492.021 3041.264,3362.742 2978.428,2775.23 2928.784,2760.751 
			2928.784,2760.121 2927.703,2760.436 2926.628,2760.121 2926.628,2760.751 2876.979,2775.23 2809.814,3401.664 2889.743,3553.185 
			2927.975,3660.222 2940.483,3637.975 2971.758,3549.708 		"/>
		<polygon style="fill:#435C7A;" points="3003.678,2678.753 2925.981,2668.102 2848.264,2678.753 2833.158,2721.922 
			2869.854,2780.195 2925.981,2782.362 2982.104,2780.195 3018.788,2721.922 		"/>
		<polygon style="fill:#BECAC6;" points="2673.241,2534.13 2922.44,2668.102 2745.594,2844.96 2614.294,2568.962 		"/>
		<polygon style="fill:#BECAC6;" points="3172.236,2534.13 2923.032,2668.102 3099.879,2844.96 3227.958,2571.797 		"/>
		<g>
			<path style="fill:#F3C8A6;" d="M3355.493,1816.917c0-302.446-181.845-397.678-418.203-397.678c-2.911,0-5.801,0.03-8.696,0.082
				v1037.767C3164.465,2456.13,3355.493,2118.95,3355.493,1816.917z"/>
			<path style="fill:#E3B99A;" d="M2917.813,1419.584c-227.756,7.418-418.116,103.23-418.116,397.333
				c0,298.286,186.363,633.214,418.116,639.871c3.292,0.101,6.529,0.327,9.777,0.327c0.336,0,0.668-0.027,1.004-0.027V1419.321
				C2924.998,1419.383,2921.408,1419.466,2917.813,1419.584z"/>
		</g>
		<g>
			<g>
				<g>
					<g>
						<path style="fill:#3C2618;" d="M3383.976,1778.671c-10.228-135.259-65.367-233.096-65.367-233.096
							c36.885-164.582-116.955-210.419-279.164-214.383c-149.956-3.621-307.033,28.493-327.325,35.892
							c-21.98,8.008-52.912,10.788-77.397,11.623c-22.486,0.741-39.639-0.104-39.639-0.104c0.918,3.714,4.53,12.377,8.071,20.333
							c3.666,8.445,7.262,16.095,7.262,16.095c-4.307,0.447-12.155-1.707-21.59-5.188c-32.833-12.03-85.887-40.832-85.887-40.832
							c-5.733,44.154,4.828,83.514,16.821,111.812c11.992,28.303,25.408,45.557,25.408,45.557
							c-9.628,1.932-36.483-9.587-36.483-9.587c7.707,36.462,15.396,53.752,15.396,53.752
							c-57.744,42.133-71.122,163.784-72.181,258.949l98.966,115.561l34.224-82.951c0.732,0.105,1.423,0.123,2.166,0.223
							c24.159-87.325,44.283-218.869,44.283-218.869c258.204,165.768,495.785,33.32,536.836,7.883
							c7.789-8.54,11.911-13.667,11.911-13.667c14.638,165.877,126.802,278.07,126.802,278.07
							c-9.363-70.444,71.445-125.685,77.469-129.686c0.244-0.162,0.564-0.384,0.564-0.384
							C3384.801,1783.264,3384.383,1781.049,3383.976,1778.671z"/>
						<path style="fill:#F3C8A6;" d="M3299.446,1887.47c-16.147,61.714-4.671,118.237,25.582,126.196
							c30.329,8.014,67.958-35.553,84.159-97.286c16.159-61.688,4.66-118.213-25.598-126.199
							C3353.305,1782.2,3315.648,1825.742,3299.446,1887.47z"/>
						<path style="fill:#E3B99A;" d="M2544.338,1889.092c16.788,60.307,7.957,115.45-19.543,123.097
							c-27.505,7.675-63.373-35.014-80.12-95.346c-16.73-60.344-7.961-115.456,19.527-123.131
							C2491.745,1786.078,2527.657,1828.745,2544.338,1889.092z"/>
					</g>
				</g>
			</g>
		</g>
		<path style="fill:none;" d="M2921.408,3647.696l39.253-77.642c-29.146-30.693-90.634,32.653-90.634,32.653v15.214l33.403-5.779
			L2921.408,3647.696z"/>
		<polygon style="fill:#E6E6E5;" points="2928.502,3661.742 2694.619,2628.594 2673.241,2534.13 2630.377,2559.463 
			2614.294,2568.962 2549.139,2836.188 2638.54,2858.533 2578.946,2970.273 		"/>
		<polygon style="fill:#E6E6E5;" points="3300.869,2836.188 3235.714,2568.962 3235.002,2568.538 3175.234,2536.553 
			3159.039,2614.635 2928.502,3661.742 3271.078,2970.273 3211.474,2858.533 		"/>
		
			<rect x="1170.799" y="2076.296" transform="matrix(0.9802 -0.1979 0.1979 0.9802 -514.6107 395.2698)" style="fill:#1D626D;" width="1098.943" height="1391.979"/>
		
			<rect x="1228.635" y="2149.548" transform="matrix(0.9802 -0.1979 0.1979 0.9802 -514.6176 395.2775)" style="fill:#FFFFFF;" width="983.269" height="1245.458"/>
		<g>
			
				<rect x="1266.664" y="2550.785" transform="matrix(0.9802 -0.1979 0.1979 0.9802 -486.1766 309.0217)" style="fill:#2D4A55;" width="73.272" height="73.245"/>
			
				<rect x="1404.865" y="2468.865" transform="matrix(0.9802 -0.1979 0.1979 0.9802 -462.0305 387.7685)" style="fill:#2D4A55;" width="608.358" height="73.246"/>
		</g>
		<g>
			
				<rect x="1294.203" y="2687.197" transform="matrix(0.9802 -0.198 0.198 0.9802 -513.0884 317.522)" style="fill:#2D4A55;" width="73.252" height="73.249"/>
			
				<rect x="1433.169" y="2612.865" transform="matrix(0.9802 -0.1979 0.1979 0.9802 -490.7318 388.6337)" style="fill:#2D4A55;" width="531.664" height="73.249"/>
		</g>
		<g>
			
				<rect x="1321.749" y="2823.601" transform="matrix(0.9802 -0.1979 0.1979 0.9802 -539.2735 325.4684)" style="fill:#2D4A55;" width="73.267" height="73.247"/>
			
				<rect x="1461.207" y="2754.277" transform="matrix(0.9802 -0.1979 0.1979 0.9802 -518.6577 391.9731)" style="fill:#2D4A55;" width="481.118" height="73.249"/>
		</g>
		<g>
			
				<rect x="1349.285" y="2960.014" transform="matrix(0.9802 -0.1979 0.1979 0.9802 -565.6843 333.5845)" style="fill:#2D4A55;" width="73.272" height="73.249"/>
			
				<rect x="1487.332" y="2876.561" transform="matrix(0.9802 -0.1979 0.1979 0.9802 -540.9078 413.6747)" style="fill:#2D4A55;" width="623.94" height="73.246"/>
		</g>
		<g>
			<polygon style="fill:#2D4A55;" points="1456.618,3161.704 1384.803,3176.195 1370.303,3104.402 1442.127,3089.9 			"/>
			
				<rect x="1514.874" y="3012.971" transform="matrix(0.9802 -0.1979 0.1979 0.9802 -567.3591 421.8238)" style="fill:#2D4A55;" width="623.937" height="73.246"/>
		</g>
		<g>
			<path style="fill:#E3B99A;" d="M1081.825,2832.712c2.666,0,5.368-0.19,8.089-0.581l157.168-22.448
				c31-4.427,52.542-33.147,48.112-64.15c-4.428-30.992-33.096-52.522-64.148-48.106l-157.169,22.448
				c-30.997,4.427-52.54,33.147-48.109,64.15C1029.806,2812.301,1054.063,2832.712,1081.825,2832.712z"/>
		</g>
		<g>
			<path style="fill:#E3B99A;" d="M1073.767,2955.668l153.963-19.238c31.073-3.894,53.114-32.225,49.23-63.297
				c-3.885-31.073-32.21-53.076-63.292-49.23l-153.966,19.248c-31.072,3.879-53.114,32.215-49.232,63.287
				c3.589,28.689,28.013,49.682,56.192,49.682C1069.007,2956.119,1071.378,2955.967,1073.767,2955.668z"/>
		</g>
		<g>
			<path style="fill:#E3B99A;" d="M1260.58,3048.475c30.778-5.773,51.052-35.401,45.279-66.176
				c-5.772-30.785-35.396-51.051-66.177-45.282l-153.963,28.862c-30.775,5.769-51.05,35.396-45.279,66.177
				c5.11,27.249,28.912,46.265,55.661,46.265c3.467,0,6.985-0.32,10.515-0.988L1260.58,3048.475z"/>
		</g>
		<g>
			<path style="fill:#E3B99A;" d="M1334.795,3093.42c-4.608-27.668-30.737-46.373-58.435-41.746l-137.891,22.98
				c-27.661,4.611-46.352,30.774-41.739,58.442c4.141,24.838,25.655,42.44,50.029,42.44c2.769,0,5.582-0.228,8.41-0.711
				l137.886-22.975C1320.719,3147.245,1339.408,3121.082,1334.795,3093.42z"/>
		</g>
		<path style="fill:#F9F9FA;" d="M3651.326,2689.127c38.53,81.602,14.812,173.696-52.967,205.709
			c-67.795,32.014-153.981-8.185-192.518-89.786c-38.53-81.597-14.822-173.702,52.968-205.71
			C3526.594,2567.327,3612.785,2607.525,3651.326,2689.127z"/>
		<path style="fill:#343337;" d="M2921.707,3407.851c0,10.417-8.44,18.857-18.857,18.857c-10.412,0-18.853-8.44-18.853-18.857
			c0-10.412,8.44-18.858,18.853-18.858C2913.267,3388.992,2921.707,3397.438,2921.707,3407.851z"/>
		<path style="fill:#343337;" d="M2979.096,3413.516c0,10.412-8.436,18.857-18.853,18.857c-10.412,0-18.853-8.445-18.853-18.857
			c0-10.418,8.44-18.863,18.853-18.863C2970.66,3394.652,2979.096,3403.098,2979.096,3413.516z"/>
		<g>
			<path style="fill:#E6E6E5;" d="M3483.522,3438.614c-81.097-56.558-247.885-85.034-398.786-93.084l-73.46,149.918l477.417,22.48
				L3483.522,3438.614z"/>
		</g>
		<g>
			<path style="fill:#010101;" d="M2518.625,2774.254c1.116,57.469,13.567,99.215,14.098,100.97l29.109-8.799
				c-0.473-1.564-46.074-157.805,38.541-271.604c12.96-17.429,28.298-33.006,45.95-46.753
				c-31.741,16.962-57.601,25.381-70.614,28.971C2536.88,2629.441,2517.143,2697.633,2518.625,2774.254z"/>
			<polygon style="fill:#010101;" points="3266.374,2968.769 3280.838,2973.439 3266.374,2968.758 			"/>
		</g>
		<path style="fill:#010101;" d="M3260.552,2575.229c-17.201-6.862-48.486-19.661-69.527-30.146
			c16.425,13.418,30.878,28.653,43.305,45.719c54.722,75.149,60.69,173.333,56.058,242.464
			c-5.101,76.067-23.795,134.803-24.013,135.492l14.464,4.682l14.464,4.677c0.81-2.504,19.929-62.314,25.365-142.01
			C3327.869,2730.655,3307.072,2640.537,3260.552,2575.229z"/>
		<g>
			<path style="fill:#E6E6E5;" d="M3376.209,2973.363c0,51.164-41.475,92.645-92.639,92.645s-92.639-41.48-92.639-92.645
				c0-51.158,41.475-92.638,92.639-92.638S3376.209,2922.205,3376.209,2973.363z"/>
			<path style="fill:#010101;" d="M3283.57,3072.656c-54.749,0-99.292-44.538-99.292-99.293c0-54.748,44.543-99.291,99.292-99.291
				c54.748,0,99.297,44.543,99.297,99.291C3382.867,3028.118,3338.318,3072.656,3283.57,3072.656z M3283.57,2887.373
				c-47.416,0-85.99,38.58-85.99,85.99c0,47.417,38.574,85.99,85.99,85.99s85.99-38.573,85.99-85.99
				C3369.561,2925.953,3330.986,2887.373,3283.57,2887.373z"/>
		</g>
		
			<ellipse transform="matrix(0.7071 -0.7071 0.7071 0.7071 -1140.7501 3192.7126)" style="fill:#B4B4B4;" cx="3283.57" cy="2973.364" rx="66.986" ry="66.986"/>
		<g>
			<path style="fill:#B4B4B4;" d="M2552.713,3474.211c-73.852-3.926-82.617-51.37-82.954-53.379l-49.605-296.676l22.529-3.77
				l49.605,296.676c0.223,1.118,6.936,31.432,61.631,34.326L2552.713,3474.211z"/>
			<path style="fill:#B4B4B4;" d="M2723.742,3431.184c68.556-27.732,61.414-75.447,61.076-77.463l-49.6-296.681l-22.534,3.77
				l49.604,296.681c0.146,1.124,3.672,31.975-47.111,52.511L2723.742,3431.184z"/>
			<path style="fill:#292728;" d="M2572.076,3437.805c21.692,4.313,37.02,19.184,34.233,33.225
				c-2.792,14.034-22.644,21.926-44.336,17.608c-21.688-4.308-37.021-19.185-34.24-33.219
				C2530.528,3441.384,2550.383,3433.492,2572.076,3437.805z"/>
			<path style="fill:#292728;" d="M2693.436,3417.513c-19.113,11.135-28.771,30.188-21.563,42.556
				c7.207,12.361,28.542,13.366,47.654,2.232c19.103-11.135,28.766-30.188,21.563-42.556S2712.543,3406.379,2693.436,3417.513z"/>
			<path style="fill:#292728;" d="M2413.938,3132.406c-0.439-2.629-10.666-65.105-2.369-131.776
				c11.61-93.29,53.975-148.664,122.511-160.118c162.489-27.174,206.489,224.464,208.281,235.186l-33.794,5.665
				c-0.38-2.286-39.997-228.604-168.836-207.057c-52.793,8.826-84.472,52.755-94.157,130.544
				c-7.685,61.777,2.06,121.316,2.158,121.908L2413.938,3132.406z"/>
		</g>
		<path style="fill:#DB4744;" d="M1594.697,2246.688c-59.085,11.074-98.002,67.948-86.929,127.031
			c11.074,59.083,67.949,98.002,127.032,86.929c59.083-11.076,98.004-67.951,86.926-127.034
			C1710.655,2274.53,1653.78,2235.61,1594.697,2246.688z M1689.83,2361.87l-49.532,9.285l9.283,49.509l-43.087,8.076l-9.281-49.51
			l-49.478,9.274l-8.076-43.078l49.481-9.274l-9.275-49.474l43.086-8.075l9.272,49.474l49.532-9.285L1689.83,2361.87z"/>
		<g>
			<g>
				<path style="fill:#305056;" d="M1773.096,2014.194l-196.347,45.807l-198.762,33.966c0,0,22.66,62.886,2.403,129.623
					l212.673-42.94l15.414-3.106l216.137-43.639C1780.026,2080.261,1773.096,2014.194,1773.096,2014.194z"/>
				<path style="fill:#2D4A55;" d="M1826.897,2129.012c2.568,12.743-5.654,25.152-18.393,27.725l-408.333,82.436
					c-12.736,2.574-25.171-5.667-27.745-18.402l0,0c-2.573-12.74,5.693-25.156,18.433-27.731l408.329-82.44
					C1811.928,2108.031,1824.325,2116.279,1826.897,2129.012L1826.897,2129.012z"/>
				<path style="fill:#2D4A55;" d="M1780.999,2014.866c2.323,11.504-5.119,22.709-16.623,25.028l-368.861,74.476
					c-11.5,2.317-22.727-5.122-25.051-16.618l0,0c-2.326-11.525,5.138-22.732,16.642-25.054l368.854-74.476
					C1767.469,1995.905,1778.669,2003.342,1780.999,2014.866L1780.999,2014.866z"/>
			</g>
			<g>
				<path style="fill:#2D4A55;" d="M1687.059,2002.542c-13.241-65.579-77.151-108.019-142.725-94.775
					c-65.577,13.236-108.008,77.148-94.771,142.725l7.066,35.005l237.497-47.947L1687.059,2002.542z M1569.877,2034.16
					c-25.481,5.141-50.305-11.348-55.445-36.797c-5.146-25.476,11.345-50.309,36.818-55.448
					c25.454-5.141,50.284,11.347,55.428,36.824C1611.818,2004.188,1595.331,2029.021,1569.877,2034.16z"/>
			</g>
		</g>
		<path style="fill:#E3B99A;" d="M2728.783,3134.628c0,0,16.93,19.005,63.249,31.638l-14.035,254.088
			c0,0-42.099-8.218-82.808,10.032L2728.783,3134.628z"/>
		<g>
			<g>
				<g>
					<g>
						<path style="fill:#FFFFFF;" d="M2885.36,3131.543l-98.222-4.774c-13.596-0.657-25.153,9.825-25.816,23.421l-6.273,129.11
							l-6.272,129.104c-0.669,13.59,9.825,25.153,23.42,25.811l98.222,4.779c13.584,0.662,25.147-9.831,25.805-23.426l6.273-129.1
							l6.273-129.115C2909.432,3143.758,2898.944,3132.206,2885.36,3131.543z"/>
						<g>
							<g>
								<g>
									<path style="fill:#E3B99A;" d="M2404.875,3386.733c1.019-20.955,18.44-36.999,39.08-37.396
										c-0.028-0.229-0.104-0.392-0.146-0.543l-37.003-1.798c-21.855-1.06-38.876-19.781-37.811-41.681
										c1.058-21.802,19.819-38.873,41.671-37.809l-39.741-1.934c-21.851-1.059-38.875-19.771-37.813-41.659
										c1.057-21.802,19.826-38.872,41.677-37.813l-158.963-7.724c-21.837-1.059-38.87-19.771-37.807-41.664
										c1.062-21.813,19.831-38.867,41.671-37.803l25.383,1.233l213.057,10.357l28.719,1.396
										c4.848,0.233,9.366-3.986,10.987-8.587c1.636-4.578,0.114-10.249-3.807-13.166c-36.714-31.105-74.48-31.084-72.433-73.227
										c0.476-9.787,6.076-18.613,14.741-23.176c8.682-4.475,19.109-4.127,27.408,1.021l261.925,137.529
										c6.121,3.797,9.7,10.656,9.348,17.875c-1.689,34.771-7.653,157.396-11.281,232.144
										c-1.603,32.915-29.547,58.312-62.499,56.71c-106.478-5.176-218.564-10.624-218.564-10.624
										C2420.83,3427.344,2403.812,3408.621,2404.875,3386.733z"/>
								</g>
							</g>
						</g>
					</g>
				</g>
			</g>
		</g>
		<path style="fill:#F9F9FA;" d="M3728.121,3502.515c-2.4,0-4.791-0.054-7.196-0.152l-925.841-38.579l14.35-344.482l703.782,55.471
			l-151.466-358.74l295.855-112.723l223.671,547.715c28.179,54.575,25.196,120.034-7.849,171.813
			C3841.692,3472.593,3786.808,3502.51,3728.121,3502.515z"/>
	</g>
</g>
</svg>
